<?xml version="1.0" encoding="UTF-8"?>
<svg xmlns="http://www.w3.org/2000/svg" width="445" height="445">
  <path d="M190.16713 407.39368c-24.76571-3.56882-28.13753-4.86495-38.21802-14.69106l-5.21803-5.08634-7.53936 1.17212c-9.64867 1.50004-15.4906.31582-23.23444-4.70987-15.68626-10.18028-29.407926-30.82974-45.693546-68.76332-29.73169-69.25306-20.95787-144.26936 23.880678-204.18042C125.94511 68.644288 163.76809 45.436878 207.66713 41.479558c4.125-.37185 11.55-1.57477 16.5-2.67315 12.16229-2.69874 17.9102-2.09393 29.44029 3.09779 11.7739 5.3015 19.64497 7.13746 27.46776 6.40695 7.01337-.65491 16.86317 1.47685 22.51017 4.87182 10.56178 6.34973 26.81013 20.45114 37.7959 32.80183 46.11723 51.847042 62.32806 126.320942 42.23352 194.024222-17.33317 58.39953-53.95174 97.30024-109.94764 116.79977-15.06411 5.2458-17.31684 5.83585-31.5 8.25068-11.48955 1.95621-44.37819 3.43254-52 2.33421zm37-16.4238c29.88913-3.31607 56.99464-12.65275 78.21672-26.94231 47.69584-32.11525 73.84807-89.94417 70.13375-155.08273-3.11108-54.55925-32.55812-107.84469-76.08316-137.675082l-6.73268-4.61433-13.26732-.74766c-13.77041-.77602-19.49626-2.21015-33.14174-8.30089-7.03601-3.14056-8.68656-3.19278-19.43892-.61508-4.57234 1.09615-10.8158 1.993-13.87435 1.993-7.0894 0-28.38453 4.29128-36.54615 7.36458-25.14547 9.46866-48.5456 27.84279-67.34346 52.879102-20.007656 26.6476-31.735386 52.37539-37.039776 81.25632-2.77978 15.13514-2.58548 48.85282.37168 64.5 3.03902 16.08026 7.25412 29.63887 14.37502 46.23976 11.833838 27.58814 20.658116 42.738 30.705736 52.71679 6.95103 6.90341 12.01796 9.48115 16.85349 8.574 11.37747-2.13443 22.23295.36807 25.90462 5.97175.8925 1.36212 4.21495 4.2076 7.38323 6.3233 4.99509 3.33559 7.00704 4.01181 15.14191 5.08922 5.15977.68337 10.0564 1.3799 10.8814 1.54784 3.63833.74061 25.30382.43175 33.5-.47758zm-44.18463-25.99206c-5.0728-2.04388-5.87582-9.5022-1.42619-13.24631 2.48939-2.09469 4.26606-2.51497 12.83971-3.0373 24.70995-1.50539 50.75776-9.81299 69.99353-22.32349 9.57721-6.2288 24.0221-21.595 30.16086-32.08456 4.05563-6.93002 6.09952-9.44832 8.28742-10.21102 5.27627-1.83932 10.8293 2.24883 10.8293 7.97255 0 2.87762-7.64885 16.20483-14.09805 24.56421-13.2764 17.20867-37.201 33.0493-61.40195 40.6546-20.03257 6.29536-48.74198 10.30712-55.18463 7.71132zm94.18463-209.969c-5.37193-1.38105-8.21487-2.83478-11.93999-6.10548-6.67443-5.86022-8.20245-11.71258-4.60049-17.61999 2.96545-4.86351 7.3554-6.75995 15.59903-6.73874 9.04264.0233 17.15392 3.68012 21.51426 9.6994 8.97732 12.39283-3.63217 25.12001-20.57281 20.76481zm-66.48241-18.98168c-6.71836-2.31898-13.55245-9.04599-14.54048-14.31265-1.60548-8.55798 5.83741-15.10097 17.09137-15.02489 12.98039.0877 24.63152 9.05702 24.63152 18.96183 0 10.09693-13.29158 15.17042-27.18241 10.37571zm40.98241-23.69146c-12.32692-4.25591-18.2194-14.559172-13.11432-22.930922 2.57432-4.2216 7.67296-6.41996 14.88972-6.41996 17.18378 0 29.98258 13.13679 23.49644 24.116952-3.70933 6.2794-15.29432 8.67871-25.27184 5.23393z"/>
</svg>