<?xml version="1.0" encoding="UTF-8" standalone="no"?>
<!DOCTYPE svg PUBLIC "-//W3C//DTD SVG 1.1//EN"
 "http://www.w3.org/Graphics/SVG/1.1/DTD/svg11.dtd">
<!-- Generated by graphviz version 2.43.0 (0)
 -->
<!-- Title: G Pages: 1 -->
<svg width="863pt" height="432pt"
 viewBox="0.00 0.00 862.60 432.00" xmlns="http://www.w3.org/2000/svg" xmlns:xlink="http://www.w3.org/1999/xlink">
<g id="graph0" class="graph" transform="scale(0.17 0.17) rotate(0) translate(4 2469.5)">
<title>G</title>
<polygon fill="white" stroke="transparent" points="-4,4 -4,-2469.5 4935,-2469.5 4935,4 -4,4"/>
<g id="clust1" class="cluster">
<title>cluster_source</title>
<polygon fill="none" stroke="black" stroke-dasharray="5,2" points="1994,-828.74 1994,-2382.63 3925,-2382.63 3925,-828.74 1994,-828.74"/>
</g>
<g id="clust2" class="cluster">
<title>cluster_raw</title>
<polygon fill="none" stroke="black" stroke-dasharray="1,5" points="3019,-911.61 3019,-1553.89 3876,-1553.89 3876,-911.61 3019,-911.61"/>
</g>
<g id="clust3" class="cluster">
<title>cluster_extraction</title>
<polygon fill="none" stroke="black" stroke-dasharray="1,5" points="2002,-1761.07 2002,-2299.75 3917,-2299.75 3917,-1761.07 2002,-1761.07"/>
</g>
<g id="clust4" class="cluster">
<title>cluster_semantic</title>
<polygon fill="none" stroke="black" stroke-dasharray="5,2" points="8,-82.87 8,-1584.96 1986,-1584.96 1986,-82.87 8,-82.87"/>
</g>
<g id="clust5" class="cluster">
<title>cluster_semantic_responses</title>
<polygon fill="none" stroke="black" stroke-dasharray="1,5" points="16,-963.41 16,-1502.09 944,-1502.09 944,-963.41 16,-963.41"/>
</g>
<g id="clust6" class="cluster">
<title>cluster_semantic_respondents</title>
<polygon fill="none" stroke="black" stroke-dasharray="1,5" points="952,-963.41 952,-1502.09 1978,-1502.09 1978,-963.41 952,-963.41"/>
</g>
<g id="clust7" class="cluster">
<title>cluster_analytical</title>
<polygon fill="none" stroke="black" stroke-dasharray="5,2" points="3933,-963.41 3933,-1502.09 4419,-1502.09 4419,-963.41 3933,-963.41"/>
</g>
<g id="clust8" class="cluster">
<title>cluster_people</title>
<polygon fill="none" stroke="black" stroke-dasharray="5,2" points="4427,-124.31 4427,-1502.09 4615,-1502.09 4615,-124.31 4427,-124.31"/>
</g>
<g id="clust9" class="cluster">
<title>cluster_validation</title>
<polygon fill="none" stroke="black" stroke-dasharray="5,2" points="4623,-124.31 4623,-2299.75 4923,-2299.75 4923,-124.31 4623,-124.31"/>
</g>
<!-- source_title -->
<g id="node1" class="node">
<title>source_title</title>
<polygon fill="none" stroke="black" stroke-dasharray="5,2" points="2547,-1250.63 2481,-1250.63 2481,-1214.63 2547,-1214.63 2547,-1250.63"/>
<text text-anchor="middle" x="2514" y="-1228.93" font-family="Times,serif" font-size="14.00">Source</text>
</g>
<!-- semantic_title -->
<g id="node12" class="node">
<title>semantic_title</title>
<polygon fill="none" stroke="black" stroke-dasharray="5,2" points="1977.5,-411.63 1894.5,-411.63 1894.5,-375.63 1977.5,-375.63 1977.5,-411.63"/>
<text text-anchor="middle" x="1936" y="-389.93" font-family="Times,serif" font-size="14.00">Semantic</text>
</g>
<!-- source_title&#45;&gt;semantic_title -->
<g id="edge11" class="edge">
<title>source_title&#45;&gt;semantic_title</title>
<path fill="none" stroke="black" d="M2502.21,-1214.55C2429.41,-1109.13 2041.23,-547.01 1953.59,-420.1"/>
<polygon fill="black" stroke="black" points="1956.37,-417.96 1947.81,-411.72 1950.61,-421.94 1956.37,-417.96"/>
</g>
<!-- raw_title -->
<g id="node2" class="node">
<title>raw_title</title>
<polygon fill="none" stroke="black" stroke-dasharray="1,5" points="3868,-1250.63 3814,-1250.63 3814,-1214.63 3868,-1214.63 3868,-1250.63"/>
<text text-anchor="middle" x="3841" y="-1228.93" font-family="Times,serif" font-size="14.00">raw</text>
</g>
<!-- raw_arunachal -->
<g id="node3" class="node">
<title>raw_arunachal</title>
<polygon fill="none" stroke="black" points="3423,-1255.63 3265.93,-1221.13 3580.07,-1221.13 3423,-1255.63"/>
<text text-anchor="middle" x="3423" y="-1228.93" font-family="Times,serif" font-size="14.00">raw_arunachal</text>
</g>
<!-- source_respondents_arunachal -->
<g id="node7" class="node">
<title>source_respondents_arunachal</title>
<polygon fill="none" stroke="black" points="2842.36,-2012.63 3095.64,-2012.63 3185.84,-2048.63 2752.16,-2048.63 2842.36,-2012.63"/>
<text text-anchor="middle" x="2969" y="-2026.93" font-family="Times,serif" font-size="14.00">source_respondents_arunachal</text>
</g>
<!-- raw_arunachal&#45;&gt;source_respondents_arunachal -->
<g id="edge1" class="edge">
<title>raw_arunachal&#45;&gt;source_respondents_arunachal</title>
<path fill="none" stroke="black" stroke-dasharray="5,2" d="M3411.78,-1253.3C3350.23,-1361.22 3053.87,-1880.83 2983.85,-2003.59"/>
<polygon fill="black" stroke="black" points="2980.76,-2001.94 2978.84,-2012.37 2986.84,-2005.41 2980.76,-2001.94"/>
</g>
<!-- source_responses_arunachal -->
<g id="node9" class="node">
<title>source_responses_arunachal</title>
<polygon fill="none" stroke="black" points="3287.78,-2012.63 3524.22,-2012.63 3608.43,-2048.63 3203.57,-2048.63 3287.78,-2012.63"/>
<text text-anchor="middle" x="3406" y="-2026.93" font-family="Times,serif" font-size="14.00">source_responses_arunachal</text>
</g>
<!-- raw_arunachal&#45;&gt;source_responses_arunachal -->
<g id="edge2" class="edge">
<title>raw_arunachal&#45;&gt;source_responses_arunachal</title>
<path fill="none" stroke="black" stroke-dasharray="5,2" d="M3422.53,-1255.75C3420.12,-1368.47 3409.23,-1878.53 3406.58,-2002.44"/>
<polygon fill="black" stroke="black" points="3403.08,-2002.51 3406.36,-2012.58 3410.08,-2002.66 3403.08,-2002.51"/>
</g>
<!-- raw_tehri -->
<g id="node4" class="node">
<title>raw_tehri</title>
<polygon fill="none" stroke="black" points="3137,-1255.63 3026.52,-1221.13 3247.48,-1221.13 3137,-1255.63"/>
<text text-anchor="middle" x="3137" y="-1228.93" font-family="Times,serif" font-size="14.00">raw_tehri</text>
</g>
<!-- source_respondents_tehri -->
<g id="node8" class="node">
<title>source_respondents_tehri</title>
<polygon fill="none" stroke="black" points="2442.74,-2012.63 2657.26,-2012.63 2733.66,-2048.63 2366.34,-2048.63 2442.74,-2012.63"/>
<text text-anchor="middle" x="2550" y="-2026.93" font-family="Times,serif" font-size="14.00">source_respondents_tehri</text>
</g>
<!-- raw_tehri&#45;&gt;source_respondents_tehri -->
<g id="edge3" class="edge">
<title>raw_tehri&#45;&gt;source_respondents_tehri</title>
<path fill="none" stroke="black" stroke-dasharray="5,2" d="M3123.64,-1251.75C3046.48,-1356.38 2658.23,-1882.85 2568.52,-2004.51"/>
<polygon fill="black" stroke="black" points="2565.7,-2002.43 2562.59,-2012.56 2571.34,-2006.59 2565.7,-2002.43"/>
</g>
<!-- source_responses_tehri -->
<g id="node10" class="node">
<title>source_responses_tehri</title>
<polygon fill="none" stroke="black" points="2080.16,-2012.63 2277.84,-2012.63 2348.25,-2048.63 2009.75,-2048.63 2080.16,-2012.63"/>
<text text-anchor="middle" x="2179" y="-2026.93" font-family="Times,serif" font-size="14.00">source_responses_tehri</text>
</g>
<!-- raw_tehri&#45;&gt;source_responses_tehri -->
<g id="edge4" class="edge">
<title>raw_tehri&#45;&gt;source_responses_tehri</title>
<path fill="none" stroke="black" stroke-dasharray="5,2" d="M3117.43,-1249.89C2996.58,-1350.3 2352.31,-1885.62 2207.79,-2005.71"/>
<polygon fill="black" stroke="black" points="2205.21,-2003.3 2199.75,-2012.38 2209.68,-2008.68 2205.21,-2003.3"/>
</g>
<!-- raw_sdg -->
<g id="node5" class="node">
<title>raw_sdg</title>
<polygon fill="none" stroke="black" points="3697,-1255.63 3598.42,-1221.13 3795.58,-1221.13 3697,-1255.63"/>
<text text-anchor="middle" x="3697" y="-1228.93" font-family="Times,serif" font-size="14.00">raw_sdg</text>
</g>
<!-- source_sdg -->
<g id="node11" class="node">
<title>source_sdg</title>
<polygon fill="none" stroke="black" points="3662.33,-2012.63 3765.67,-2012.63 3802.48,-2048.63 3625.52,-2048.63 3662.33,-2012.63"/>
<text text-anchor="middle" x="3714" y="-2026.93" font-family="Times,serif" font-size="14.00">source_sdg</text>
</g>
<!-- raw_sdg&#45;&gt;source_sdg -->
<g id="edge5" class="edge">
<title>raw_sdg&#45;&gt;source_sdg</title>
<path fill="none" stroke="black" stroke-dasharray="5,2" d="M3697.47,-1255.75C3699.88,-1368.47 3710.77,-1878.53 3713.42,-2002.44"/>
<polygon fill="black" stroke="black" points="3709.92,-2002.66 3713.64,-2012.58 3716.92,-2002.51 3709.92,-2002.66"/>
</g>
<!-- extraction_title -->
<g id="node6" class="node">
<title>extraction_title</title>
<polygon fill="none" stroke="black" stroke-dasharray="1,5" points="3909.5,-2048.63 3820.5,-2048.63 3820.5,-2012.63 3909.5,-2012.63 3909.5,-2048.63"/>
<text text-anchor="middle" x="3865" y="-2026.93" font-family="Times,serif" font-size="14.00">extraction</text>
</g>
<!-- analytical_responses -->
<g id="node26" class="node">
<title>analytical_responses</title>
<polygon fill="none" stroke="black" points="4305,-1250.63 4141,-1250.63 4141,-1214.63 4305,-1214.63 4305,-1250.63"/>
<text text-anchor="middle" x="4223" y="-1228.93" font-family="Times,serif" font-size="14.00">analytical_responses</text>
</g>
<!-- source_sdg&#45;&gt;analytical_responses -->
<g id="edge16" class="edge">
<title>source_sdg&#45;&gt;analytical_responses</title>
<path fill="none" stroke="black" d="M3724.96,-2012.49C3790.22,-1910.43 4127.53,-1382.93 4206.46,-1259.49"/>
<polygon fill="black" stroke="black" points="4209.46,-1261.3 4211.9,-1250.99 4203.56,-1257.53 4209.46,-1261.3"/>
</g>
<!-- entities -->
<g id="node33" class="node">
<title>entities</title>
<polygon fill="none" stroke="black" points="4740.97,-1250.63 4665.03,-1250.63 4637.98,-1214.63 4768.02,-1214.63 4740.97,-1250.63"/>
<text text-anchor="middle" x="4703" y="-1228.93" font-family="Times,serif" font-size="14.00">entities</text>
</g>
<!-- source_sdg&#45;&gt;entities -->
<g id="edge18" class="edge">
<title>source_sdg&#45;&gt;entities</title>
<path fill="none" stroke="black" d="M3735.29,-2012.49C3862.86,-1909.81 4525.39,-1376.57 4673.58,-1257.31"/>
<polygon fill="black" stroke="black" points="4675.83,-1259.99 4681.42,-1250.99 4671.44,-1254.54 4675.83,-1259.99"/>
</g>
<!-- analytical_title -->
<g id="node25" class="node">
<title>analytical_title</title>
<polygon fill="none" stroke="black" stroke-dasharray="5,2" points="4410.5,-1250.63 4323.5,-1250.63 4323.5,-1214.63 4410.5,-1214.63 4410.5,-1250.63"/>
<text text-anchor="middle" x="4367" y="-1228.93" font-family="Times,serif" font-size="14.00">Analytical</text>
</g>
<!-- semantic_title&#45;&gt;analytical_title -->
<g id="edge12" class="edge">
<title>semantic_title&#45;&gt;analytical_title</title>
<path fill="none" stroke="black" d="M1977.79,-403.72C2216.01,-456.58 3423.28,-737.7 4314,-1193.63 4322.11,-1197.78 4330.36,-1203.08 4337.87,-1208.39"/>
<polygon fill="black" stroke="black" points="4336.14,-1211.47 4346.27,-1214.57 4340.29,-1205.83 4336.14,-1211.47"/>
</g>
<!-- semantic_title&#45;&gt;entities -->
<g id="edge17" class="edge">
<title>semantic_title&#45;&gt;entities</title>
<path fill="none" stroke="black" d="M1977.67,-404.77C2229,-466.4 3567.15,-801.14 4619,-1193.63 4632.03,-1198.49 4645.88,-1204.42 4658.51,-1210.15"/>
<polygon fill="black" stroke="black" points="4657.34,-1213.46 4667.89,-1214.46 4660.26,-1207.1 4657.34,-1213.46"/>
</g>
<!-- semantic_responses -->
<g id="node13" class="node">
<title>semantic_responses</title>
<polygon fill="none" stroke="black" points="703.07,-1214.63 874.93,-1214.63 936.13,-1250.63 641.87,-1250.63 703.07,-1214.63"/>
<text text-anchor="middle" x="789" y="-1228.93" font-family="Times,serif" font-size="14.00">semantic_responses</text>
</g>
<!-- response_id -->
<g id="node14" class="node">
<title>response_id</title>
<polygon fill="none" stroke="black" stroke-dasharray="1,5" points="624.49,-1250.63 470.99,-1250.63 431.51,-1214.63 585.01,-1214.63 624.49,-1250.63"/>
<text text-anchor="middle" x="528" y="-1228.93" font-family="Times,serif" font-size="14.00">response_id</text>
</g>
<!-- preference -->
<g id="node15" class="node">
<title>preference</title>
<polygon fill="none" stroke="black" stroke-dasharray="1,5" points="413.65,-1250.63 271.04,-1250.63 234.35,-1214.63 376.96,-1214.63 413.65,-1250.63"/>
<text text-anchor="middle" x="324" y="-1228.93" font-family="Times,serif" font-size="14.00">preference</text>
</g>
<!-- sdg_id -->
<g id="node16" class="node">
<title>sdg_id</title>
<polygon fill="none" stroke="black" stroke-dasharray="1,5" points="216.16,-1250.63 122.05,-1250.63 97.84,-1214.63 191.95,-1214.63 216.16,-1250.63"/>
<text text-anchor="middle" x="157" y="-1228.93" font-family="Times,serif" font-size="14.00">sdg_id</text>
</g>
<!-- unknown_response_attributes -->
<g id="node17" class="node">
<title>unknown_response_attributes</title>
<polygon fill="none" stroke="black" stroke-dasharray="1,5" points="79.98,-1250.63 35.47,-1250.63 24.02,-1214.63 68.53,-1214.63 79.98,-1250.63"/>
<text text-anchor="middle" x="52" y="-1228.93" font-family="Times,serif" font-size="14.00">?</text>
</g>
<!-- semantic_respondents -->
<g id="node18" class="node">
<title>semantic_respondents</title>
<polygon fill="none" stroke="black" points="1713.66,-1214.63 1902.34,-1214.63 1969.54,-1250.63 1646.46,-1250.63 1713.66,-1214.63"/>
<text text-anchor="middle" x="1808" y="-1228.93" font-family="Times,serif" font-size="14.00">semantic_respondents</text>
</g>
<!-- age -->
<g id="node19" class="node">
<title>age</title>
<polygon fill="none" stroke="black" stroke-dasharray="1,5" points="1628.05,-1250.63 1564.34,-1250.63 1547.95,-1214.63 1611.66,-1214.63 1628.05,-1250.63"/>
<text text-anchor="middle" x="1588" y="-1228.93" font-family="Times,serif" font-size="14.00">age</text>
</g>
<!-- gender -->
<g id="node20" class="node">
<title>gender</title>
<polygon fill="none" stroke="black" stroke-dasharray="1,5" points="1529.69,-1250.63 1428.37,-1250.63 1402.31,-1214.63 1503.63,-1214.63 1529.69,-1250.63"/>
<text text-anchor="middle" x="1466" y="-1228.93" font-family="Times,serif" font-size="14.00">gender</text>
</g>
<!-- displacement -->
<g id="node21" class="node">
<title>displacement</title>
<polygon fill="none" stroke="black" stroke-dasharray="1,5" points="1383.96,-1250.63 1213.81,-1250.63 1170.04,-1214.63 1340.19,-1214.63 1383.96,-1250.63"/>
<text text-anchor="middle" x="1277" y="-1228.93" font-family="Times,serif" font-size="14.00">displacement</text>
</g>
<!-- region -->
<g id="node22" class="node">
<title>region</title>
<polygon fill="none" stroke="black" stroke-dasharray="1,5" points="1152.16,-1250.63 1058.05,-1250.63 1033.84,-1214.63 1127.95,-1214.63 1152.16,-1250.63"/>
<text text-anchor="middle" x="1093" y="-1228.93" font-family="Times,serif" font-size="14.00">region</text>
</g>
<!-- unknown_respondent_attributes -->
<g id="node23" class="node">
<title>unknown_respondent_attributes</title>
<polygon fill="none" stroke="black" stroke-dasharray="1,5" points="1015.98,-1250.63 971.47,-1250.63 960.02,-1214.63 1004.53,-1214.63 1015.98,-1250.63"/>
<text text-anchor="middle" x="988" y="-1228.93" font-family="Times,serif" font-size="14.00">?</text>
</g>
<!-- respondent_id -->
<g id="node24" class="node">
<title>respondent_id</title>
<polygon fill="none" stroke="black" points="1372.02,-386.17 1372.02,-401.08 1323.39,-411.63 1254.61,-411.63 1205.98,-401.08 1205.98,-386.17 1254.61,-375.63 1323.39,-375.63 1372.02,-386.17"/>
<polygon fill="none" stroke="black" points="1376.02,-382.94 1376.02,-404.31 1323.82,-415.63 1254.18,-415.63 1201.98,-404.31 1201.98,-382.94 1254.18,-371.63 1323.82,-371.63 1376.02,-382.94"/>
<text text-anchor="middle" x="1289" y="-389.93" font-family="Times,serif" font-size="14.00">respondent_id</text>
</g>
<!-- respondent_id&#45;&gt;semantic_responses -->
<g id="edge6" class="edge">
<title>respondent_id&#45;&gt;semantic_responses</title>
<path fill="none" stroke="black" stroke-dasharray="5,2" d="M1276.39,-415.73C1207.76,-530.63 879.5,-1080.12 804.35,-1205.93"/>
<polygon fill="black" stroke="black" points="801.32,-1204.18 799.19,-1214.56 807.33,-1207.77 801.32,-1204.18"/>
</g>
<!-- respondent_id&#45;&gt;semantic_respondents -->
<g id="edge7" class="edge">
<title>respondent_id&#45;&gt;semantic_respondents</title>
<path fill="none" stroke="black" stroke-dasharray="5,2" d="M1302.09,-415.73C1373.33,-530.63 1714.06,-1080.12 1792.07,-1205.93"/>
<polygon fill="black" stroke="black" points="1789.18,-1207.91 1797.42,-1214.56 1795.12,-1204.22 1789.18,-1207.91"/>
</g>
<!-- Garima -->
<g id="node29" class="node">
<title>Garima</title>
<ellipse fill="none" stroke="black" cx="4480" cy="-393.63" rx="44.69" ry="18"/>
<text text-anchor="middle" x="4480" y="-389.93" font-family="Times,serif" font-size="14.00">Garima</text>
</g>
<!-- analytical_title&#45;&gt;Garima -->
<g id="edge23" class="edge">
<title>analytical_title&#45;&gt;Garima</title>
<path fill="none" stroke="black" d="M4369.3,-1214.55C4383.48,-1109.55 4458.82,-551.5 4476.35,-421.64"/>
<polygon fill="black" stroke="black" points="4479.82,-422.1 4477.69,-411.72 4472.89,-421.17 4479.82,-422.1"/>
</g>
<!-- Charles -->
<g id="node30" class="node">
<title>Charles</title>
<ellipse fill="none" stroke="black" cx="4481" cy="-1232.63" rx="46.29" ry="18"/>
<text text-anchor="middle" x="4481" y="-1228.93" font-family="Times,serif" font-size="14.00">Charles</text>
</g>
<!-- analytical_title&#45;&gt;Charles -->
<g id="edge24" class="edge">
<title>analytical_title&#45;&gt;Charles</title>
<path fill="none" stroke="black" d="M4410.64,-1232.63C4415.3,-1232.63 4419.96,-1232.63 4424.62,-1232.63"/>
<polygon fill="black" stroke="black" points="4424.83,-1236.13 4434.83,-1232.63 4424.83,-1229.13 4424.83,-1236.13"/>
</g>
<!-- validation_title -->
<g id="node35" class="node">
<title>validation_title</title>
<polygon fill="none" stroke="black" points="4428.5,-2048.63 4305.5,-2048.63 4305.5,-2012.63 4428.5,-2012.63 4428.5,-2048.63"/>
<text text-anchor="middle" x="4367" y="-2026.93" font-family="Times,serif" font-size="14.00">validation_title</text>
</g>
<!-- analytical_title&#45;&gt;validation_title -->
<g id="edge19" class="edge">
<title>analytical_title&#45;&gt;validation_title</title>
<path fill="none" stroke="black" d="M4367,-1250.99C4367,-1353.17 4367,-1875.93 4367,-2002.17"/>
<polygon fill="black" stroke="black" points="4363.5,-2002.49 4367,-2012.49 4370.5,-2002.49 4363.5,-2002.49"/>
</g>
<!-- analytical_respondents -->
<g id="node27" class="node">
<title>analytical_respondents</title>
<polygon fill="none" stroke="black" points="4122.5,-1250.63 3941.5,-1250.63 3941.5,-1214.63 4122.5,-1214.63 4122.5,-1250.63"/>
<text text-anchor="middle" x="4032" y="-1228.93" font-family="Times,serif" font-size="14.00">analytical_respondents</text>
</g>
<!-- people_title -->
<g id="node28" class="node">
<title>people_title</title>
<polygon fill="none" stroke="black" stroke-dasharray="5,2" points="4607,-411.63 4543,-411.63 4543,-375.63 4607,-375.63 4607,-411.63"/>
<text text-anchor="middle" x="4575" y="-389.93" font-family="Times,serif" font-size="14.00">People</text>
</g>
<!-- Garima&#45;&gt;raw_arunachal -->
<g id="edge15" class="edge">
<title>Garima&#45;&gt;raw_arunachal</title>
<path fill="none" stroke="black" d="M4460.29,-410.23C4328.94,-514.25 3581.23,-1106.33 3444.48,-1214.62"/>
<polygon fill="black" stroke="black" points="3442.03,-1212.09 3436.37,-1221.04 3446.38,-1217.58 3442.03,-1212.09"/>
</g>
<!-- Garima&#45;&gt;raw_tehri -->
<g id="edge14" class="edge">
<title>Garima&#45;&gt;raw_tehri</title>
<path fill="none" stroke="black" d="M4456.69,-409.15C4294.23,-510.4 3332.59,-1109.73 3162.65,-1215.64"/>
<polygon fill="black" stroke="black" points="3160.72,-1212.72 3154.09,-1220.98 3164.43,-1218.66 3160.72,-1212.72"/>
</g>
<!-- Garima&#45;&gt;raw_sdg -->
<g id="edge13" class="edge">
<title>Garima&#45;&gt;raw_sdg</title>
<path fill="none" stroke="black" d="M4465.06,-410.6C4367.08,-515.33 3817.28,-1103.05 3713.8,-1213.67"/>
<polygon fill="black" stroke="black" points="3711.16,-1211.37 3706.88,-1221.06 3716.27,-1216.15 3711.16,-1211.37"/>
</g>
<!-- Garima&#45;&gt;Charles -->
<g id="edge8" class="edge">
<title>Garima&#45;&gt;Charles</title>
<path fill="none" stroke="black" stroke-dasharray="5,2" d="M4480.02,-411.72C4480.15,-516.7 4480.81,-1073.74 4480.97,-1204.25"/>
<polygon fill="black" stroke="black" points="4477.47,-1204.56 4480.98,-1214.55 4484.47,-1204.55 4477.47,-1204.56"/>
</g>
<!-- Charles&#45;&gt;source_title -->
<g id="edge21" class="edge">
<title>Charles&#45;&gt;source_title</title>
<path fill="none" stroke="black" d="M4485.15,-1214.64C4499.39,-1147.72 4538.87,-911.47 4414,-804.63 3944.6,-402.99 3604.51,-593.31 3024,-804.63 2793.97,-888.36 2595.5,-1126.47 2533.8,-1206.23"/>
<polygon fill="black" stroke="black" points="2530.92,-1204.23 2527.61,-1214.3 2536.47,-1208.5 2530.92,-1204.23"/>
</g>
<!-- validation -->
<g id="node31" class="node">
<title>validation</title>
<polygon fill="none" stroke="black" stroke-dasharray="5,2" points="4718.5,-411.63 4631.5,-411.63 4631.5,-375.63 4718.5,-375.63 4718.5,-411.63"/>
<text text-anchor="middle" x="4675" y="-389.93" font-family="Times,serif" font-size="14.00">validation</text>
</g>
<!-- validation&#45;&gt;Garima -->
<g id="edge20" class="edge">
<title>validation&#45;&gt;Garima</title>
<path fill="none" stroke="black" d="M4657.22,-375.56C4645.08,-364.57 4627.99,-351.55 4610,-345.63 4581.72,-336.31 4571.21,-336.1 4543,-345.63 4528.32,-350.58 4514.36,-360.47 4503.33,-369.99"/>
<polygon fill="black" stroke="black" points="4500.9,-367.47 4495.85,-376.78 4505.61,-372.65 4500.9,-367.47"/>
</g>
<!-- validation&#45;&gt;Charles -->
<g id="edge22" class="edge">
<title>validation&#45;&gt;Charles</title>
<path fill="none" stroke="black" d="M4671.04,-411.72C4646.68,-516.81 4517.33,-1074.86 4487.25,-1204.64"/>
<polygon fill="black" stroke="black" points="4483.81,-1204.02 4484.96,-1214.55 4490.62,-1205.6 4483.81,-1204.02"/>
</g>
<!-- data_entity -->
<g id="node32" class="node">
<title>data_entity</title>
<polygon fill="none" stroke="black" points="4878.16,-411.63 4773.84,-411.63 4736.68,-375.63 4915.32,-375.63 4878.16,-411.63"/>
<text text-anchor="middle" x="4826" y="-389.93" font-family="Times,serif" font-size="14.00">data_entity</text>
</g>
<!-- data_entity&#45;&gt;entities -->
<g id="edge9" class="edge">
<title>data_entity&#45;&gt;entities</title>
<path fill="none" stroke="black" stroke-dasharray="5,2" d="M4823.49,-411.72C4808.05,-516.81 4726.04,-1074.86 4706.97,-1204.64"/>
<polygon fill="black" stroke="black" points="4703.5,-1204.15 4705.51,-1214.55 4710.43,-1205.17 4703.5,-1204.15"/>
</g>
<!-- migration -->
<g id="node34" class="node">
<title>migration</title>
<polygon fill="none" stroke="black" points="4756.19,-2048.63 4663.81,-2048.63 4630.9,-2012.63 4789.1,-2012.63 4756.19,-2048.63"/>
<text text-anchor="middle" x="4710" y="-2026.93" font-family="Times,serif" font-size="14.00">migration</text>
</g>
<!-- entities&#45;&gt;migration -->
<g id="edge10" class="edge">
<title>entities&#45;&gt;migration</title>
<path fill="none" stroke="black" stroke-dasharray="5,2" d="M4703.15,-1250.99C4704.05,-1353.17 4708.65,-1875.93 4709.76,-2002.17"/>
<polygon fill="black" stroke="black" points="4706.26,-2002.52 4709.85,-2012.49 4713.26,-2002.46 4706.26,-2002.52"/>
</g>
</g>
</svg>
