<?xml version="1.0" encoding="UTF-8" standalone="no"?>
<!DOCTYPE svg PUBLIC "-//W3C//DTD SVG 1.1//EN"
 "http://www.w3.org/Graphics/SVG/1.1/DTD/svg11.dtd">
<!-- Generated by graphviz version 2.43.0 (0)
 -->
<!-- Title: colog_data Pages: 1 -->
<svg width="430pt" height="364pt"
 viewBox="0.00 0.00 430.00 364.00" xmlns="http://www.w3.org/2000/svg" xmlns:xlink="http://www.w3.org/1999/xlink">
<g id="graph0" class="graph" transform="scale(1 1) rotate(0) translate(4 360)">
<title>colog_data</title>
<polygon fill="white" stroke="transparent" points="-4,4 -4,-360 426,-360 426,4 -4,4"/>
<g id="clust1" class="cluster">
<title>cluster_representational</title>
<polygon fill="none" stroke="black" stroke-dasharray="5,2" points="8,-152 8,-348 248,-348 248,-152 8,-152"/>
</g>
<g id="clust2" class="cluster">
<title>cluster_data</title>
<polygon fill="none" stroke="black" stroke-dasharray="5,2" points="256,-8 256,-276 414,-276 414,-8 256,-8"/>
</g>
<!-- represented -->
<g id="node1" class="node">
<title>represented</title>
<polygon fill="none" stroke="red" points="144,-268 48.32,-250 144,-232 239.68,-250 144,-268"/>
<text text-anchor="middle" x="144" y="-246.3" font-family="Times,serif" font-size="14.00" fill="red">represented</text>
</g>
<!-- representor -->
<g id="node3" class="node">
<title>representor</title>
<polygon fill="none" stroke="black" points="115,-196 22.33,-178 115,-160 207.67,-178 115,-196"/>
<text text-anchor="middle" x="115" y="-174.3" font-family="Times,serif" font-size="14.00">representor</text>
</g>
<!-- represented&#45;&gt;representor -->
<g id="edge3" class="edge">
<title>represented&#45;&gt;representor</title>
<path fill="none" stroke="red" stroke-dasharray="5,2" d="M137.42,-233.12C133.9,-224.61 129.48,-213.94 125.49,-204.32"/>
<polygon fill="red" stroke="red" points="128.62,-202.72 121.55,-194.82 122.15,-205.4 128.62,-202.72"/>
</g>
<!-- people -->
<g id="node4" class="node">
<title>people</title>
<ellipse fill="none" stroke="red" cx="306" cy="-178" rx="41.69" ry="18"/>
<text text-anchor="middle" x="306" y="-174.3" font-family="Times,serif" font-size="14.00" fill="red">people</text>
</g>
<!-- represented&#45;&gt;people -->
<g id="edge13" class="edge">
<title>represented&#45;&gt;people</title>
<path fill="none" stroke="red" stroke-dasharray="1,5" d="M171.48,-237.13C198.12,-225.62 238.73,-208.07 268.36,-195.26"/>
<polygon fill="red" stroke="red" points="269.77,-198.47 277.57,-191.29 267,-192.04 269.77,-198.47"/>
</g>
<!-- data -->
<g id="node5" class="node">
<title>data</title>
<polygon fill="none" stroke="black" points="362.05,-106 344.02,-124 307.98,-124 289.95,-106 307.98,-88 344.02,-88 362.05,-106"/>
<text text-anchor="middle" x="326" y="-102.3" font-family="Times,serif" font-size="14.00">data</text>
</g>
<!-- represented&#45;&gt;data -->
<g id="edge11" class="edge">
<title>represented&#45;&gt;data</title>
<path fill="none" stroke="black" d="M164.79,-235.78C179.96,-225.71 200.63,-211.05 217,-196 236.03,-178.52 235.43,-168.88 255,-152 266.92,-141.72 281.39,-132.12 294.15,-124.45"/>
<polygon fill="black" stroke="black" points="296.22,-127.29 303.08,-119.22 292.69,-121.25 296.22,-127.29"/>
</g>
<!-- representation -->
<g id="node2" class="node">
<title>representation</title>
<polygon fill="none" stroke="gray" points="128,-340 15.73,-322 128,-304 240.27,-322 128,-340"/>
<text text-anchor="middle" x="128" y="-318.3" font-family="Times,serif" font-size="14.00" fill="gray">representation</text>
</g>
<!-- representation&#45;&gt;represented -->
<g id="edge2" class="edge">
<title>representation&#45;&gt;represented</title>
<path fill="none" stroke="black" stroke-dasharray="5,2" d="M131.79,-304.41C133.64,-296.3 135.92,-286.35 138,-277.25"/>
<polygon fill="black" stroke="black" points="141.42,-278 140.24,-267.47 134.6,-276.44 141.42,-278"/>
</g>
<!-- representation&#45;&gt;representor -->
<g id="edge1" class="edge">
<title>representation&#45;&gt;representor</title>
<path fill="none" stroke="black" stroke-dasharray="5,2" d="M86.24,-310.52C68.45,-303.76 49.43,-292.96 39,-276 28.76,-259.34 29.95,-249.34 39,-232 47.26,-216.17 62.64,-204.11 77.41,-195.52"/>
<polygon fill="black" stroke="black" points="79.34,-198.46 86.46,-190.62 76,-192.3 79.34,-198.46"/>
</g>
<!-- analysis -->
<g id="node6" class="node">
<title>analysis</title>
<polygon fill="none" stroke="gray" points="405.54,-268 293.33,-268 264.46,-232 376.67,-232 405.54,-268"/>
<text text-anchor="middle" x="335" y="-246.3" font-family="Times,serif" font-size="14.00" fill="gray">analysis</text>
</g>
<!-- representation&#45;&gt;analysis -->
<g id="edge10" class="edge">
<title>representation&#45;&gt;analysis</title>
<path fill="none" stroke="black" d="M162.18,-309.44C194.65,-298.46 243.96,-281.79 281.61,-269.06"/>
<polygon fill="black" stroke="black" points="283.05,-272.26 291.4,-265.74 280.81,-265.63 283.05,-272.26"/>
</g>
<!-- analyst -->
<g id="node7" class="node">
<title>analyst</title>
<ellipse fill="none" stroke="black" cx="317" cy="-34" rx="44.39" ry="18"/>
<text text-anchor="middle" x="317" y="-30.3" font-family="Times,serif" font-size="14.00">analyst</text>
</g>
<!-- representor&#45;&gt;analyst -->
<g id="edge12" class="edge">
<title>representor&#45;&gt;analyst</title>
<path fill="none" stroke="black" d="M134,-163.64C169.38,-138.77 245.55,-85.23 287.6,-55.66"/>
<polygon fill="black" stroke="black" points="289.62,-58.53 295.79,-49.91 285.59,-52.8 289.62,-58.53"/>
</g>
<!-- people&#45;&gt;data -->
<g id="edge9" class="edge">
<title>people&#45;&gt;data</title>
<path fill="none" stroke="gray" stroke-width="2" d="M310.84,-160.05C313.07,-152.26 315.77,-142.82 318.26,-134.08"/>
<polygon fill="gray" stroke="gray" stroke-width="2" points="321.68,-134.85 321.06,-124.28 314.95,-132.93 321.68,-134.85"/>
</g>
<!-- people&#45;&gt;analyst -->
<g id="edge8" class="edge">
<title>people&#45;&gt;analyst</title>
<path fill="none" stroke="black" stroke-dasharray="1,5" d="M295.64,-160.53C285.7,-142.61 273.26,-113.16 281,-88 284.14,-77.79 289.99,-67.79 296.07,-59.27"/>
<polygon fill="black" stroke="black" points="298.87,-61.37 302.14,-51.29 293.3,-57.13 298.87,-61.37"/>
</g>
<!-- data&#45;&gt;analyst -->
<g id="edge6" class="edge">
<title>data&#45;&gt;analyst</title>
<path fill="none" stroke="red" stroke-dasharray="5,2" d="M323.78,-87.7C322.78,-79.98 321.59,-70.71 320.49,-62.11"/>
<polygon fill="red" stroke="red" points="323.95,-61.58 319.2,-52.1 317,-62.47 323.95,-61.58"/>
</g>
<!-- analysis&#45;&gt;people -->
<g id="edge7" class="edge">
<title>analysis&#45;&gt;people</title>
<path fill="none" stroke="red" stroke-dasharray="1,5" d="M327.83,-231.7C324.57,-223.81 320.63,-214.3 317,-205.55"/>
<polygon fill="red" stroke="red" points="320.15,-204 313.09,-196.1 313.68,-206.68 320.15,-204"/>
</g>
<!-- analysis&#45;&gt;data -->
<g id="edge5" class="edge">
<title>analysis&#45;&gt;data</title>
<path fill="none" stroke="black" stroke-dasharray="5,2" d="M344.23,-231.96C353.59,-212.42 365.57,-179.54 357,-152 354.88,-145.18 351.33,-138.49 347.37,-132.43"/>
<polygon fill="black" stroke="black" points="350.06,-130.17 341.4,-124.07 344.36,-134.24 350.06,-130.17"/>
</g>
<!-- analysis&#45;&gt;analyst -->
<g id="edge4" class="edge">
<title>analysis&#45;&gt;analyst</title>
<path fill="none" stroke="black" stroke-dasharray="5,2" d="M346.35,-231.57C352.3,-221.57 359.15,-208.53 363,-196 377.15,-149.99 389.63,-132.38 371,-88 365.83,-75.67 356.23,-64.77 346.54,-56.1"/>
<polygon fill="black" stroke="black" points="348.76,-53.39 338.84,-49.65 344.26,-58.76 348.76,-53.39"/>
</g>
</g>
</svg>
