<?xml version="1.0" encoding="UTF-8" standalone="no"?>
<!DOCTYPE svg PUBLIC "-//W3C//DTD SVG 1.1//EN"
 "http://www.w3.org/Graphics/SVG/1.1/DTD/svg11.dtd">
<!-- Generated by graphviz version 2.43.0 (0)
 -->
<!-- Title: PostcolGraph Pages: 1 -->
<svg width="1464pt" height="808pt"
 viewBox="0.00 0.00 1464.00 807.57" xmlns="http://www.w3.org/2000/svg" xmlns:xlink="http://www.w3.org/1999/xlink">
<g id="graph0" class="graph" transform="scale(1 1) rotate(0) translate(4 803.57)">
<title>PostcolGraph</title>
<polygon fill="white" stroke="transparent" points="-4,4 -4,-803.57 1460,-803.57 1460,4 -4,4"/>
<g id="clust2" class="cluster">
<title>cluster_postcol</title>
<polygon fill="none" stroke="black" stroke-dasharray="5,2" points="8,-204.81 8,-791.57 707,-791.57 707,-204.81 8,-204.81"/>
</g>
<g id="clust3" class="cluster">
<title>cluster_garima</title>
<polygon fill="none" stroke="black" stroke-dasharray="5,2" points="715,-8 715,-551.57 1448,-551.57 1448,-8 715,-8"/>
</g>
<!-- postcol_title -->
<g id="node1" class="node">
<title>postcol_title</title>
<polygon fill="none" stroke="black" stroke-dasharray="5,2" points="698.5,-783.57 325.5,-783.57 325.5,-624.57 698.5,-624.57 698.5,-783.57"/>
<text text-anchor="middle" x="512" y="-768.37" font-family="Times,serif" font-size="14.00">Critical olog </text>
<text text-anchor="middle" x="512" y="-753.37" font-family="Times,serif" font-size="14.00"> &#160;&#160;&#160;&#160;&#160;</text>
<text text-anchor="middle" x="512" y="-738.37" font-family="Times,serif" font-size="14.00"> &#160;&#160;&#160;&#160;&#160;of FAIR data representation </text>
<text text-anchor="middle" x="512" y="-723.37" font-family="Times,serif" font-size="14.00"> &#160;&#160;&#160;&#160;&#160;understood as </text>
<text text-anchor="middle" x="512" y="-708.37" font-family="Times,serif" font-size="14.00"> &#160;&#160;&#160;&#160;&#160;representor and represented</text>
<text text-anchor="middle" x="512" y="-677.37" font-family="Times,serif" font-size="14.00"> &#160;&#160;&#160;&#160;&#160;Critical theory challenges</text>
<text text-anchor="middle" x="512" y="-662.37" font-family="Times,serif" font-size="14.00"> &#160;&#160;&#160;&#160;&#160;representors&#39; assumptions by</text>
<text text-anchor="middle" x="512" y="-647.37" font-family="Times,serif" font-size="14.00"> &#160;&#160;&#160;&#160;&#160;differentiating between </text>
<text text-anchor="middle" x="512" y="-632.37" font-family="Times,serif" font-size="14.00"> &#160;&#160;&#160;&#160;&#160;representation, represented, and representor.</text>
</g>
<!-- represented -->
<g id="node2" class="node">
<title>represented</title>
<ellipse fill="none" stroke="red" cx="507" cy="-474.27" rx="192.17" ry="37.45"/>
<text text-anchor="middle" x="507" y="-485.57" font-family="Times,serif" font-size="14.00">represented</text>
<text text-anchor="middle" x="507" y="-470.57" font-family="Times,serif" font-size="14.00"> &#160;&#160;&#160;&#160;&#160;</text>
<text text-anchor="middle" x="507" y="-455.57" font-family="Times,serif" font-size="14.00"> &#160;&#160;&#160;&#160;&#160;at least one automata or human</text>
</g>
<!-- representor -->
<g id="node3" class="node">
<title>representor</title>
<ellipse fill="none" stroke="black" cx="495" cy="-250.28" rx="74.49" ry="37.45"/>
<text text-anchor="middle" x="495" y="-261.58" font-family="Times,serif" font-size="14.00">representor</text>
<text text-anchor="middle" x="495" y="-246.58" font-family="Times,serif" font-size="14.00"> &#160;&#160;&#160;&#160;&#160;</text>
<text text-anchor="middle" x="495" y="-231.58" font-family="Times,serif" font-size="14.00"> &#160;&#160;&#160;&#160;&#160;a human</text>
</g>
<!-- represented&#45;&gt;representor -->
<g id="edge3" class="edge">
<title>represented&#45;&gt;representor</title>
<path fill="none" stroke="red" stroke-dasharray="5,2" d="M505.02,-436.61C502.97,-398.7 499.76,-339.36 497.53,-298.08"/>
<polygon fill="red" stroke="red" points="501.02,-297.79 496.98,-287.99 494.03,-298.17 501.02,-297.79"/>
<text text-anchor="middle" x="604" y="-368.27" font-family="Times,serif" font-size="14.00" fill="red">is findable, accessible </text>
<text text-anchor="middle" x="604" y="-353.27" font-family="Times,serif" font-size="14.00" fill="red"> &#160;&#160;&#160;&#160;&#160;&#160;&#160;interoperable, reusable</text>
<text text-anchor="middle" x="604" y="-338.27" font-family="Times,serif" font-size="14.00" fill="red"> &#160;&#160;&#160;&#160;&#160;&#160;&#160;(FAIR) to</text>
</g>
<!-- data -->
<g id="node5" class="node">
<title>data</title>
<ellipse fill="none" stroke="red" cx="869" cy="-250.28" rx="145.83" ry="48.17"/>
<text text-anchor="middle" x="869" y="-269.08" font-family="Times,serif" font-size="14.00">data</text>
<text text-anchor="middle" x="869" y="-254.08" font-family="Times,serif" font-size="14.00"> &#160;&#160;&#160;&#160;&#160;</text>
<text text-anchor="middle" x="869" y="-239.08" font-family="Times,serif" font-size="14.00"> &#160;&#160;&#160;&#160;&#160;the opinions of People </text>
<text text-anchor="middle" x="869" y="-224.08" font-family="Times,serif" font-size="14.00"> &#160;&#160;&#160;&#160;&#160;affected by SDG</text>
</g>
<!-- represented&#45;&gt;data -->
<g id="edge10" class="edge">
<title>represented&#45;&gt;data</title>
<path fill="none" stroke="black" d="M598.61,-441.21C634.55,-426.89 675.4,-408.39 710,-386.97 731.32,-373.78 775.94,-335.3 812.51,-302.67"/>
<polygon fill="black" stroke="black" points="815.06,-305.09 820.17,-295.81 810.39,-299.87 815.06,-305.09"/>
</g>
<!-- people -->
<g id="node9" class="node">
<title>people</title>
<ellipse fill="none" stroke="red" stroke-dasharray="1,5" cx="1151" cy="-250.28" rx="118.59" ry="58.88"/>
<text text-anchor="middle" x="1151" y="-276.58" font-family="Times,serif" font-size="14.00">People </text>
<text text-anchor="middle" x="1151" y="-261.58" font-family="Times,serif" font-size="14.00"> &#160;&#160;&#160;&#160;&#160;&#160;&#160;</text>
<text text-anchor="middle" x="1151" y="-246.58" font-family="Times,serif" font-size="14.00"> &#160;&#160;&#160;&#160;&#160;&#160;&#160;affected by SDG</text>
<text text-anchor="middle" x="1151" y="-231.58" font-family="Times,serif" font-size="14.00"> &#160;&#160;&#160;&#160;&#160;&#160;&#160;Dr Gupta is</text>
<text text-anchor="middle" x="1151" y="-216.58" font-family="Times,serif" font-size="14.00"> &#160;&#160;&#160;&#160;&#160;&#160;&#160;representing</text>
</g>
<!-- represented&#45;&gt;people -->
<g id="edge12" class="edge">
<title>represented&#45;&gt;people</title>
<path fill="none" stroke="red" stroke-dasharray="1,5" d="M601.72,-441.57C670.33,-418.51 752.35,-390.7 760,-386.97 803.89,-365.59 806,-343.3 852,-326.97 924.43,-301.26 949.83,-329.13 1024,-308.97 1035.89,-305.74 1048.08,-301.51 1059.97,-296.82"/>
<polygon fill="red" stroke="red" points="1061.49,-299.97 1069.43,-292.96 1058.85,-293.49 1061.49,-299.97"/>
<text text-anchor="middle" x="992.5" y="-375.77" font-family="Times,serif" font-size="14.00" fill="red">critical framing </text>
<text text-anchor="middle" x="992.5" y="-360.77" font-family="Times,serif" font-size="14.00" fill="red"> &#160;&#160;&#160;&#160;&#160;of analysis as representation </text>
<text text-anchor="middle" x="992.5" y="-345.77" font-family="Times,serif" font-size="14.00" fill="red"> &#160;&#160;&#160;&#160;&#160;of People&#39;s priorities (represented) </text>
<text text-anchor="middle" x="992.5" y="-330.77" font-family="Times,serif" font-size="14.00" fill="red"> &#160;&#160;&#160;&#160;&#160;by Dr Gupta (representor)</text>
</g>
<!-- garima -->
<g id="node6" class="node">
<title>garima</title>
<ellipse fill="none" stroke="black" cx="1031" cy="-85.3" rx="188.18" ry="69.09"/>
<text text-anchor="middle" x="1031" y="-119.1" font-family="Times,serif" font-size="14.00">Dr Garima Gupta </text>
<text text-anchor="middle" x="1031" y="-104.1" font-family="Times,serif" font-size="14.00"> &#160;&#160;&#160;&#160;&#160;</text>
<text text-anchor="middle" x="1031" y="-89.1" font-family="Times,serif" font-size="14.00"> &#160;&#160;&#160;&#160;&#160;is an ecologist who specialises </text>
<text text-anchor="middle" x="1031" y="-74.1" font-family="Times,serif" font-size="14.00"> &#160;&#160;&#160;&#160;&#160;in sustainable development</text>
<text text-anchor="middle" x="1031" y="-59.1" font-family="Times,serif" font-size="14.00"> &#160;&#160;&#160;&#160;&#160;and injustice in Western and </text>
<text text-anchor="middle" x="1031" y="-44.1" font-family="Times,serif" font-size="14.00"> &#160;&#160;&#160;&#160;&#160;Eastern Himalayas</text>
</g>
<!-- representor&#45;&gt;garima -->
<g id="edge11" class="edge">
<title>representor&#45;&gt;garima</title>
<path fill="none" stroke="black" d="M557.8,-230.19C635.67,-206.51 771.11,-165.32 877.18,-133.07"/>
<polygon fill="black" stroke="black" points="878.48,-136.33 887.03,-130.08 876.44,-129.64 878.48,-136.33"/>
</g>
<!-- representation -->
<g id="node4" class="node">
<title>representation</title>
<ellipse fill="#eeeeee" stroke="black" cx="162" cy="-704.07" rx="145.83" ry="48.17"/>
<text text-anchor="middle" x="162" y="-722.87" font-family="Times,serif" font-size="14.00">representation</text>
<text text-anchor="middle" x="162" y="-707.87" font-family="Times,serif" font-size="14.00"> &#160;&#160;&#160;</text>
<text text-anchor="middle" x="162" y="-692.87" font-family="Times,serif" font-size="14.00"> &#160;&#160;&#160;generated by automata,</text>
<text text-anchor="middle" x="162" y="-677.87" font-family="Times,serif" font-size="14.00"> &#160;&#160;&#160;interpreted by human</text>
</g>
<!-- representation&#45;&gt;represented -->
<g id="edge1" class="edge">
<title>representation&#45;&gt;represented</title>
<path fill="none" stroke="red" stroke-dasharray="5,2" d="M226.08,-660.75C288.71,-619.4 383.4,-556.88 445.22,-516.06"/>
<polygon fill="red" stroke="red" points="447.31,-518.88 453.72,-510.45 443.45,-513.04 447.31,-518.88"/>
<text text-anchor="middle" x="475" y="-595.37" font-family="Times,serif" font-size="14.00" fill="red">faithfully implements </text>
<text text-anchor="middle" x="475" y="-580.37" font-family="Times,serif" font-size="14.00" fill="red"> &#160;&#160;&#160;&#160;&#160;&#160;&#160;questions and answers</text>
<text text-anchor="middle" x="475" y="-565.37" font-family="Times,serif" font-size="14.00" fill="red"> &#160;&#160;&#160;&#160;&#160;&#160;&#160;about</text>
</g>
<!-- representation&#45;&gt;representor -->
<g id="edge2" class="edge">
<title>representation&#45;&gt;representor</title>
<path fill="none" stroke="black" stroke-dasharray="5,2" d="M136.38,-656.59C105.68,-593.96 64.44,-481.52 116,-404.97 181.86,-307.2 321.7,-271.6 411.87,-258.66"/>
<polygon fill="black" stroke="black" points="412.36,-262.13 421.79,-257.3 411.41,-255.19 412.36,-262.13"/>
<text text-anchor="middle" x="211" y="-478.07" font-family="Times,serif" font-size="14.00">reflects the questions and </text>
<text text-anchor="middle" x="211" y="-463.07" font-family="Times,serif" font-size="14.00"> &#160;&#160;&#160;&#160;&#160;&#160;&#160;answers designed by</text>
</g>
<!-- analysis -->
<g id="node7" class="node">
<title>analysis</title>
<ellipse fill="#eeeeee" stroke="black" cx="1237" cy="-474.27" rx="202.88" ry="69.09"/>
<text text-anchor="middle" x="1237" y="-508.07" font-family="Times,serif" font-size="14.00">analysis</text>
<text text-anchor="middle" x="1237" y="-493.07" font-family="Times,serif" font-size="14.00"> &#160;&#160;&#160;&#160;&#160;</text>
<text text-anchor="middle" x="1237" y="-478.07" font-family="Times,serif" font-size="14.00"> &#160;&#160;&#160;&#160;&#160;reflecting Dr Gupta&#39;s summary of </text>
<text text-anchor="middle" x="1237" y="-463.07" font-family="Times,serif" font-size="14.00"> &#160;&#160;&#160;&#160;&#160;People&#39;s priorities about</text>
<text text-anchor="middle" x="1237" y="-448.07" font-family="Times,serif" font-size="14.00"> &#160;&#160;&#160;&#160;&#160;Sustainable Development Goals</text>
<text text-anchor="middle" x="1237" y="-433.07" font-family="Times,serif" font-size="14.00"> &#160;&#160;&#160;&#160;&#160;SDG (SDG)</text>
</g>
<!-- representation&#45;&gt;analysis -->
<g id="edge9" class="edge">
<title>representation&#45;&gt;analysis</title>
<path fill="none" stroke="black" d="M229.82,-661.3C256.1,-647.13 287.05,-632.81 317,-624.57 429.53,-593.58 462.81,-617.7 579,-606.57 778.25,-587.48 831.32,-598.11 1026,-551.57 1049.31,-545.99 1073.6,-538.69 1097.06,-530.81"/>
<polygon fill="black" stroke="black" points="1098.36,-534.07 1106.7,-527.53 1096.1,-527.44 1098.36,-534.07"/>
</g>
<!-- data&#45;&gt;garima -->
<g id="edge6" class="edge">
<title>data&#45;&gt;garima</title>
<path fill="none" stroke="red" stroke-dasharray="5,2" d="M913.7,-204.31C927.99,-189.93 944.19,-173.64 959.88,-157.85"/>
<polygon fill="red" stroke="red" points="962.48,-160.2 967.05,-150.64 957.51,-155.27 962.48,-160.2"/>
</g>
<!-- analysis&#45;&gt;data -->
<g id="edge4" class="edge">
<title>analysis&#45;&gt;data</title>
<path fill="none" stroke="red" stroke-dasharray="5,2" d="M1156.35,-410.61C1148.13,-402.99 1140.18,-395.03 1133,-386.97 1111.86,-363.21 1119.86,-345.49 1094,-326.97 1067.53,-308.02 1054.07,-318.7 1023,-308.97 1005.99,-303.65 988.11,-297.49 970.81,-291.22"/>
<polygon fill="red" stroke="red" points="971.86,-287.88 961.26,-287.73 969.45,-294.45 971.86,-287.88"/>
</g>
<!-- analysis&#45;&gt;garima -->
<g id="edge5" class="edge">
<title>analysis&#45;&gt;garima</title>
<path fill="none" stroke="black" stroke-dasharray="5,2" d="M1281.81,-406.54C1284.7,-400.12 1287.17,-393.55 1289,-386.97 1300.66,-345.02 1290.09,-207.08 1279,-191.59 1258.8,-163.38 1229.48,-142.68 1198.03,-127.5"/>
<polygon fill="black" stroke="black" points="1199.2,-124.19 1188.66,-123.17 1196.26,-130.55 1199.2,-124.19"/>
</g>
<!-- analysis&#45;&gt;people -->
<g id="edge8" class="edge">
<title>analysis&#45;&gt;people</title>
<path fill="none" stroke="red" stroke-dasharray="1,5" d="M1160.36,-409.91C1155.04,-402.71 1150.44,-395.04 1147,-386.97 1138.02,-365.92 1136.43,-341.31 1137.91,-318.87"/>
<polygon fill="red" stroke="red" points="1141.41,-319 1138.8,-308.74 1134.44,-318.39 1141.41,-319"/>
<text text-anchor="middle" x="1218" y="-353.27" font-family="Times,serif" font-size="14.00">reflects priorities of</text>
</g>
<!-- functors -->
<g id="node8" class="node">
<title>functors</title>
<polygon fill="none" stroke="black" stroke-dasharray="5,2" points="1016.5,-508.27 723.5,-508.27 723.5,-440.27 1016.5,-440.27 1016.5,-508.27"/>
<text text-anchor="middle" x="870" y="-493.07" font-family="Times,serif" font-size="14.00">Maps from critical theoretic </text>
<text text-anchor="middle" x="870" y="-478.07" font-family="Times,serif" font-size="14.00"> &#160;&#160;&#160;&#160;&#160;&#160;&#160;framework to Dr Gupta&#39;s analysis</text>
<text text-anchor="middle" x="870" y="-463.07" font-family="Times,serif" font-size="14.00"> &#160;&#160;&#160;&#160;&#160;&#160;&#160;are interpreted as:</text>
<text text-anchor="middle" x="870" y="-448.07" font-family="Times,serif" font-size="14.00"> &#160;&#160;&#160;&#160;&#160;&#160;&#160;[a contextual instantiation of].</text>
</g>
<!-- people&#45;&gt;garima -->
<g id="edge7" class="edge">
<title>people&#45;&gt;garima</title>
<path fill="none" stroke="red" stroke-dasharray="1,5" d="M1111.04,-195.01C1102.98,-184.06 1094.37,-172.36 1085.89,-160.85"/>
<polygon fill="red" stroke="red" points="1088.5,-158.5 1079.76,-152.52 1082.87,-162.65 1088.5,-158.5"/>
</g>
</g>
</svg>
