<?xml version="1.0" encoding="UTF-8" standalone="no"?>
<!DOCTYPE svg PUBLIC "-//W3C//DTD SVG 1.1//EN"
 "http://www.w3.org/Graphics/SVG/1.1/DTD/svg11.dtd">
<!-- Generated by graphviz version 2.43.0 (0)
 -->
<!-- Title: PostcolGraph Pages: 1 -->
<svg width="1125pt" height="372pt"
 viewBox="0.00 0.00 1125.00 372.00" xmlns="http://www.w3.org/2000/svg" xmlns:xlink="http://www.w3.org/1999/xlink">
<g id="graph0" class="graph" transform="scale(1 1) rotate(0) translate(4 368)">
<title>PostcolGraph</title>
<polygon fill="white" stroke="transparent" points="-4,4 -4,-368 1121,-368 1121,4 -4,4"/>
<g id="clust2" class="cluster">
<title>cluster_postcol</title>
<polygon fill="none" stroke="black" stroke-dasharray="5,2" points="8,-81 8,-356 570,-356 570,-81 8,-81"/>
</g>
<g id="clust3" class="cluster">
<title>cluster_disney</title>
<polygon fill="none" stroke="black" stroke-dasharray="5,2" points="578,-8 578,-237 1109,-237 1109,-8 578,-8"/>
</g>
<!-- postcol_title -->
<g id="node1" class="node">
<title>postcol_title</title>
<polygon fill="none" stroke="black" stroke-dasharray="5,2" points="562,-348 192,-348 192,-280 562,-280 562,-348"/>
<text text-anchor="middle" x="377" y="-332.8" font-family="Times,serif" font-size="14.00">Postcolonialism challenges</text>
<text text-anchor="middle" x="377" y="-317.8" font-family="Times,serif" font-size="14.00"> &#160;&#160;&#160;&#160;&#160;representors&#39; assumptions by</text>
<text text-anchor="middle" x="377" y="-302.8" font-family="Times,serif" font-size="14.00"> &#160;&#160;&#160;&#160;&#160;differentiating between </text>
<text text-anchor="middle" x="377" y="-287.8" font-family="Times,serif" font-size="14.00"> &#160;&#160;&#160;&#160;&#160;representation, represented, and representor</text>
</g>
<!-- represented -->
<g id="node2" class="node">
<title>represented</title>
<ellipse fill="none" stroke="red" cx="404" cy="-202.5" rx="67.69" ry="18"/>
<text text-anchor="middle" x="404" y="-198.8" font-family="Times,serif" font-size="14.00">represented</text>
</g>
<!-- representor -->
<g id="node4" class="node">
<title>representor</title>
<ellipse fill="none" stroke="black" cx="404" cy="-107" rx="65.79" ry="18"/>
<text text-anchor="middle" x="404" y="-103.3" font-family="Times,serif" font-size="14.00">representor</text>
</g>
<!-- represented&#45;&gt;representor -->
<g id="edge3" class="edge">
<title>represented&#45;&gt;representor</title>
<path fill="none" stroke="red" stroke-dasharray="5,2" d="M404,-184.35C404,-170.64 404,-151.17 404,-135.32"/>
<polygon fill="red" stroke="red" points="407.5,-135.04 404,-125.04 400.5,-135.04 407.5,-135.04"/>
<text text-anchor="middle" x="464" y="-146.8" font-family="Times,serif" font-size="14.00">is understood by</text>
</g>
<!-- arab -->
<g id="node5" class="node">
<title>arab</title>
<ellipse fill="none" stroke="red" cx="721" cy="-107" rx="31.7" ry="18"/>
<text text-anchor="middle" x="721" y="-103.3" font-family="Times,serif" font-size="14.00">arab</text>
</g>
<!-- represented&#45;&gt;arab -->
<g id="edge8" class="edge">
<title>represented&#45;&gt;arab</title>
<path fill="none" stroke="black" d="M447.41,-188.7C510.09,-170.21 624.85,-136.36 683.84,-118.96"/>
<polygon fill="black" stroke="black" points="684.89,-122.3 693.49,-116.11 682.91,-115.59 684.89,-122.3"/>
</g>
<!-- representation -->
<g id="node3" class="node">
<title>representation</title>
<ellipse fill="none" stroke="black" cx="95" cy="-314" rx="79.09" ry="18"/>
<text text-anchor="middle" x="95" y="-310.3" font-family="Times,serif" font-size="14.00">representation</text>
</g>
<!-- representation&#45;&gt;represented -->
<g id="edge1" class="edge">
<title>representation&#45;&gt;represented</title>
<path fill="none" stroke="red" stroke-dasharray="5,2" d="M133.91,-298.17C149.18,-292.41 166.88,-285.81 183,-280 241.71,-258.83 309.6,-235.5 354.47,-220.24"/>
<polygon fill="red" stroke="red" points="355.63,-223.55 363.97,-217.01 353.37,-216.92 355.63,-223.55"/>
<text text-anchor="middle" x="317" y="-250.8" font-family="Times,serif" font-size="14.00">is faithful to</text>
</g>
<!-- representation&#45;&gt;representor -->
<g id="edge2" class="edge">
<title>representation&#45;&gt;representor</title>
<path fill="none" stroke="black" stroke-dasharray="5,2" d="M106.2,-295.81C125.68,-267.16 168.49,-209.5 218,-176 256.56,-149.91 306.36,-132.4 344.73,-121.69"/>
<polygon fill="black" stroke="black" points="345.99,-124.97 354.72,-118.98 344.15,-118.21 345.99,-124.97"/>
<text text-anchor="middle" x="272.5" y="-198.8" font-family="Times,serif" font-size="14.00">was created by</text>
</g>
<!-- aladdin -->
<g id="node6" class="node">
<title>aladdin</title>
<ellipse fill="none" stroke="black" cx="1056" cy="-202.5" rx="44.69" ry="18"/>
<text text-anchor="middle" x="1056" y="-198.8" font-family="Times,serif" font-size="14.00">aladdin</text>
</g>
<!-- representation&#45;&gt;aladdin -->
<g id="edge7" class="edge">
<title>representation&#45;&gt;aladdin</title>
<path fill="none" stroke="black" d="M128.55,-297.65C144.67,-291 164.47,-283.86 183,-280 361.63,-242.75 829.12,-292.32 1003,-237 1011.74,-234.22 1020.47,-229.64 1028.25,-224.74"/>
<polygon fill="black" stroke="black" points="1030.22,-227.64 1036.58,-219.16 1026.32,-221.82 1030.22,-227.64"/>
</g>
<!-- disney -->
<g id="node7" class="node">
<title>disney</title>
<ellipse fill="none" stroke="black" cx="721" cy="-34" rx="40.89" ry="18"/>
<text text-anchor="middle" x="721" y="-30.3" font-family="Times,serif" font-size="14.00">disney</text>
</g>
<!-- representor&#45;&gt;disney -->
<g id="edge9" class="edge">
<title>representor&#45;&gt;disney</title>
<path fill="none" stroke="black" d="M453.18,-94.98C514.01,-81.36 616.71,-58.36 675.69,-45.15"/>
<polygon fill="black" stroke="black" points="676.48,-48.56 685.47,-42.96 674.95,-41.73 676.48,-48.56"/>
</g>
<!-- arab&#45;&gt;disney -->
<g id="edge6" class="edge">
<title>arab&#45;&gt;disney</title>
<path fill="none" stroke="red" stroke-dasharray="5,2" d="M721,-88.81C721,-80.79 721,-71.05 721,-62.07"/>
<polygon fill="red" stroke="red" points="724.5,-62.03 721,-52.03 717.5,-62.03 724.5,-62.03"/>
</g>
<!-- aladdin&#45;&gt;arab -->
<g id="edge4" class="edge">
<title>aladdin&#45;&gt;arab</title>
<path fill="none" stroke="red" stroke-dasharray="5,2" d="M1030.05,-187.66C1021.59,-183.52 1012.04,-179.22 1003,-176 919.22,-146.13 816.82,-125.11 761.36,-114.94"/>
<polygon fill="red" stroke="red" points="761.71,-111.45 751.24,-113.11 760.46,-118.34 761.71,-111.45"/>
</g>
<!-- aladdin&#45;&gt;disney -->
<g id="edge5" class="edge">
<title>aladdin&#45;&gt;disney</title>
<path fill="none" stroke="black" stroke-dasharray="5,2" d="M1028.87,-188.02C968.59,-158.06 823.57,-85.98 756.33,-52.56"/>
<polygon fill="black" stroke="black" points="757.5,-49.23 746.99,-47.92 754.39,-55.5 757.5,-49.23"/>
</g>
<!-- functors -->
<g id="node8" class="node">
<title>functors</title>
<polygon fill="none" stroke="black" stroke-dasharray="5,2" points="993.5,-229 586.5,-229 586.5,-176 993.5,-176 993.5,-229"/>
<text text-anchor="middle" x="790" y="-213.8" font-family="Times,serif" font-size="14.00">Maps from Postcolonial framework to Disney&#39;s Aladdin</text>
<text text-anchor="middle" x="790" y="-198.8" font-family="Times,serif" font-size="14.00">are interpreted as:</text>
<text text-anchor="middle" x="790" y="-183.8" font-family="Times,serif" font-size="14.00">a contextual instantiation of</text>
</g>
</g>
</svg>
